<?xml version="1.0" standalone="no"?>
<!DOCTYPE svg PUBLIC "-//W3C//DTD SVG 20010904//EN"
 "http://www.w3.org/TR/2001/REC-SVG-20010904/DTD/svg10.dtd">
<svg version="1.0" xmlns="http://www.w3.org/2000/svg"
 width="1200.000000pt" height="1200.000000pt" viewBox="0 0 1200.000000 1200.000000"
 preserveAspectRatio="xMidYMid meet">

<g transform="translate(0.000000,1200.000000) scale(0.100000,-0.100000)"
fill="#000000" stroke="none">
<path d="M0 6000 l0 -6000 6000 0 6000 0 0 6000 0 6000 -6000 0 -6000 0 0
-6000z m4060 1328 c0 -253 0 -253 19 -222 10 17 32 40 48 51 45 31 164 83 175
77 6 -4 8 -32 6 -64 -7 -92 -38 -130 -153 -187 l-95 -48 0 -320 0 -320 90 90
c119 118 122 131 47 223 -71 88 -78 103 -78 167 0 50 31 136 49 135 7 -1 79
-87 118 -141 l21 -29 62 243 c33 133 61 247 61 253 0 6 -20 19 -45 28 -77 30
-121 104 -151 254 -6 31 -6 32 31 32 78 0 155 -64 177 -146 7 -24 15 -44 19
-44 3 0 12 27 19 60 7 33 17 63 21 66 5 3 30 -5 57 -16 l49 -21 -28 -112 c-16
-62 -29 -114 -29 -116 0 -2 20 15 44 37 61 56 99 73 161 73 50 0 115 -22 115
-40 0 -16 -140 -142 -174 -156 -41 -17 -93 -19 -132 -5 -15 6 -29 8 -32 6 -6
-7 -122 -456 -122 -476 0 -8 127 112 283 268 l283 282 37 -38 37 -38 -210
-209 c-116 -115 -210 -213 -210 -217 0 -5 73 -8 161 -8 l162 0 -7 31 c-7 38 9
104 35 141 31 43 179 144 189 128 19 -30 20 -91 3 -142 -15 -44 -28 -61 -81
-103 l-63 -50 163 -3 164 -2 17 -48 c9 -26 17 -50 17 -54 0 -4 -134 -9 -297
-10 l-298 -3 38 -19 c50 -25 80 -71 116 -179 l30 -87 -45 0 c-53 0 -112 28
-147 69 -14 17 -39 73 -57 126 l-32 95 -96 0 -97 0 -112 -112 -113 -113 0
-340 c0 -257 4 -357 15 -408 48 -229 244 -409 473 -435 l67 -7 3 -57 3 -58
-38 0 c-115 1 -288 68 -394 153 -67 53 -142 150 -180 232 -56 120 -61 155 -66
488 l-5 309 -49 -48 -49 -48 0 -543 0 -543 -60 0 -60 0 0 543 0 543 -49 48
-49 48 -5 -304 c-5 -336 -12 -379 -72 -503 -101 -208 -307 -350 -538 -372
l-68 -6 3 59 3 59 68 7 c176 20 344 139 425 302 56 112 62 162 62 542 l0 340
-114 112 -114 113 -97 -3 -98 -3 -30 -90 c-34 -104 -63 -147 -117 -175 -34
-17 -130 -29 -130 -16 0 15 65 184 78 204 9 14 37 38 61 54 l45 28 -297 0
c-163 0 -297 3 -297 8 0 4 8 28 17 55 l17 47 165 1 166 0 -30 22 c-102 75
-144 147 -130 226 11 69 16 69 106 4 102 -72 132 -118 131 -199 l0 -54 159 0
c87 0 159 3 159 7 0 4 -96 103 -212 220 l-213 213 38 37 37 38 94 -94 93 -93
-4 69 c-5 57 -2 76 15 110 19 37 74 93 90 93 4 0 20 -43 36 -96 34 -117 32
-167 -12 -229 l-30 -42 167 -167 c91 -91 169 -166 172 -166 3 0 6 18 7 41 1
22 9 56 18 75 19 40 83 99 94 87 4 -4 20 -48 35 -98 30 -100 29 -155 -5 -209
l-19 -32 84 -84 85 -85 0 245 0 245 -156 155 c-141 140 -155 152 -147 120 13
-56 7 -112 -15 -157 -23 -45 -78 -91 -92 -77 -10 10 -60 181 -60 204 0 34 22
91 47 120 l26 32 -113 113 c-63 63 -112 116 -110 118 12 11 91 47 102 47 7 0
127 -114 265 -252 l253 -253 0 141 0 140 -72 35 c-88 42 -123 70 -148 120 -21
41 -28 149 -10 149 23 0 170 -81 199 -110 l31 -32 0 91 0 91 60 0 60 0 0 -252z
m5070 -780 c67 -25 163 -83 195 -118 21 -23 17 -30 -59 -114 -43 -49 -44 -50
-67 -33 -131 95 -204 122 -310 115 -228 -17 -382 -261 -311 -494 53 -173 173
-266 342 -266 90 0 162 25 234 80 27 20 55 41 62 47 11 7 30 -6 76 -52 l62
-62 -29 -32 c-37 -39 -145 -110 -203 -132 -23 -10 -85 -22 -136 -29 -80 -10
-106 -9 -177 5 -178 35 -322 141 -392 288 -50 105 -61 151 -61 264 0 268 160
480 414 550 85 23 276 15 360 -17z m-2555 -11 c186 -62 320 -202 364 -382 15
-62 16 -204 1 -270 -43 -189 -211 -352 -412 -400 -47 -11 -128 -15 -315 -15
l-253 0 0 551 0 551 268 -4 c257 -4 270 -5 347 -31z m1066 -333 l284 -366 3
366 2 366 100 0 100 0 0 -550 0 -551 -87 3 -87 3 -284 365 c-155 201 -287 367
-292 368 -6 2 -10 -134 -10 -367 l0 -371 -100 0 -100 0 0 550 0 550 94 0 94 0
283 -366z m-4162 192 c92 -96 117 -165 90 -247 -23 -68 -29 -67 -111 19 -81
85 -104 137 -91 204 7 39 30 88 42 88 4 0 36 -29 70 -64z m1137 29 c7 -19 14
-58 14 -88 0 -64 -29 -114 -113 -196 l-56 -55 -20 45 c-25 53 -26 107 -6 157
15 35 140 172 158 172 4 0 15 -16 23 -35z m-1716 -75 c0 -155 -38 -221 -148
-255 l-24 -7 4 119 c3 107 5 123 28 155 29 43 87 81 133 87 4 1 7 -44 7 -99z
m2286 68 c17 -12 42 -37 55 -56 21 -32 24 -48 27 -153 l4 -118 -32 9 c-49 14
-100 58 -121 104 -14 31 -19 65 -19 145 l0 103 28 -7 c15 -3 41 -16 58 -27z
m1534 -1113 c-7 -8 -17 -15 -22 -15 -6 0 -5 7 2 15 7 8 17 15 22 15 6 0 5 -7
-2 -15z m-627 -75 c16 -19 27 -42 27 -60 0 -69 -45 -110 -120 -110 l-40 0 0
106 0 107 53 -6 c41 -5 58 -13 80 -37z m157 -65 c0 -63 -4 -105 -10 -105 -6 0
-10 42 -10 105 0 63 4 105 10 105 6 0 10 -42 10 -105z m191 10 c24 -36 46 -65
49 -65 3 0 3 32 2 71 -2 43 1 76 7 82 8 8 11 -19 11 -96 0 -59 -3 -107 -7
-107 -5 1 -33 36 -63 80 l-55 79 -3 -79 c-4 -119 -22 -98 -22 27 0 102 1 106
18 89 11 -9 39 -45 63 -81z m291 28 c14 -38 33 -85 42 -105 13 -30 13 -38 3
-38 -7 0 -18 14 -24 30 -10 27 -15 30 -57 30 -40 0 -47 -3 -61 -30 -33 -64
-32 -26 2 58 41 102 51 122 61 122 4 0 19 -30 34 -67z m197 11 l34 -57 18 24
c10 13 26 39 36 57 10 17 21 32 25 32 5 0 8 -48 8 -106 0 -68 -4 -103 -10 -99
-6 4 -10 35 -9 71 1 36 -1 67 -3 70 -3 3 -18 -16 -32 -41 -15 -25 -28 -45 -30
-45 -2 0 -17 21 -33 48 l-28 47 -3 -77 c-4 -117 -22 -95 -22 27 0 58 3 105 8
105 4 0 23 -25 41 -56z m261 -49 c0 -63 -4 -105 -10 -105 -6 0 -10 42 -10 105
0 63 4 105 10 105 6 0 10 -42 10 -105z m235 93 c28 -13 35 -34 8 -23 -50 19
-72 17 -97 -8 -67 -67 4 -180 86 -136 11 6 23 8 26 4 13 -12 -32 -35 -69 -35
-95 0 -123 149 -38 196 30 17 51 17 84 2z m231 -41 c12 -28 31 -76 42 -104 23
-56 13 -73 -13 -23 -14 27 -21 30 -60 30 -39 0 -46 -3 -60 -30 -9 -16 -19 -30
-24 -30 -5 0 10 47 32 105 23 58 47 105 52 105 6 0 20 -24 31 -53z m419 41
c28 -13 35 -34 8 -23 -50 19 -72 17 -97 -8 -67 -67 4 -180 86 -136 27 14 38 1
14 -17 -56 -41 -146 9 -146 81 0 87 64 136 135 103z m253 -13 c17 -14 33 -39
37 -55 8 -38 -11 -96 -38 -115 -59 -41 -147 7 -147 80 0 97 81 146 148 90z
m272 15 c0 -5 -25 -10 -55 -10 l-55 0 0 -40 0 -40 50 0 c28 0 50 -4 50 -10 0
-5 -22 -10 -50 -10 l-50 0 0 -45 c0 -25 -4 -45 -10 -45 -6 0 -10 42 -10 105
l0 105 65 0 c37 0 65 -4 65 -10z m230 0 c0 -5 -25 -10 -55 -10 l-55 0 0 -40 0
-40 50 0 c28 0 50 -4 50 -10 0 -5 -22 -10 -50 -10 l-50 0 0 -45 c0 -25 -4 -45
-10 -45 -6 0 -10 42 -10 105 l0 105 65 0 c37 0 65 -4 65 -10z m230 0 c0 -5
-25 -10 -55 -10 l-55 0 0 -40 0 -40 51 0 c31 0 48 -4 44 -10 -3 -5 -26 -10
-51 -10 -44 0 -44 0 -44 -35 l0 -35 55 0 c30 0 55 -4 55 -10 0 -6 -28 -10 -65
-10 l-65 0 0 105 0 105 65 0 c37 0 65 -4 65 -10z m230 0 c0 -5 -25 -10 -55
-10 l-55 0 0 -40 0 -40 50 0 c28 0 50 -4 50 -10 0 -5 -22 -10 -50 -10 l-50 0
0 -35 0 -35 55 0 c30 0 55 -4 55 -10 0 -6 -28 -10 -65 -10 l-65 0 0 105 0 105
65 0 c37 0 65 -4 65 -10z"/>
<path d="M6160 6020 l0 -362 163 4 c161 3 163 3 229 36 75 36 115 78 156 162
23 48 27 67 27 155 0 94 -2 105 -33 167 -39 80 -101 138 -181 169 -46 19 -82
23 -208 27 l-153 4 0 -362z"/>
<path d="M5980 5166 l0 -86 34 0 c44 0 75 26 82 71 8 47 -25 87 -78 96 l-38 6
0 -87z"/>
<path d="M6677 5199 c-24 -63 -22 -69 18 -69 41 0 43 13 16 74 l-17 39 -17
-44z"/>
<path d="M7607 5199 c-24 -63 -22 -69 18 -69 41 0 43 13 16 74 l-17 39 -17
-44z"/>
<path d="M8225 5225 c-63 -62 -1 -170 80 -139 25 10 47 62 40 95 -15 66 -77
88 -120 44z"/>
</g>
</svg>
